<svg width="25" height="24" viewBox="0 0 25 24" fill="none" xmlns="http://www.w3.org/2000/svg">
<path fill-rule="evenodd" clip-rule="evenodd" d="M12.5 3.3C7.69512 3.3 3.8 7.19512 3.8 12C3.8 16.8049 7.69512 20.7 12.5 20.7C17.3049 20.7 21.2 16.8049 21.2 12C21.2 7.19512 17.3049 3.3 12.5 3.3ZM2 12C2 6.20101 6.70101 1.5 12.5 1.5C18.299 1.5 23 6.20101 23 12C23 17.799 18.299 22.5 12.5 22.5C6.70101 22.5 2 17.799 2 12Z" fill="#FF3440"/>
<path fill-rule="evenodd" clip-rule="evenodd" d="M12.5001 7.5C12.9972 7.5 13.4001 7.90294 13.4001 8.4V12.9C13.4001 13.3971 12.9972 13.8 12.5001 13.8C12.003 13.8 11.6001 13.3971 11.6001 12.9V8.4C11.6001 7.90294 12.003 7.5 12.5001 7.5Z" fill="#FF3440"/>
<path fill-rule="evenodd" clip-rule="evenodd" d="M12.5001 14.7C12.9972 14.7 13.4001 15.1029 13.4001 15.6V15.66C13.4001 16.157 12.9972 16.56 12.5001 16.56C12.003 16.56 11.6001 16.157 11.6001 15.66V15.6C11.6001 15.1029 12.003 14.7 12.5001 14.7Z" fill="#FF3440"/>
</svg>
