<svg width="40" height="40" viewBox="0 0 40 40" fill="none" xmlns="http://www.w3.org/2000/svg">
<path fill-rule="evenodd" clip-rule="evenodd" d="M20 5.5C16.4101 5.5 13.5 8.41015 13.5 12C13.5 15.5899 16.4101 18.5 20 18.5C23.5899 18.5 26.5 15.5899 26.5 12C26.5 8.41015 23.5899 5.5 20 5.5ZM10.5 12C10.5 6.75329 14.7533 2.5 20 2.5C25.2467 2.5 29.5 6.75329 29.5 12C29.5 17.2467 25.2467 21.5 20 21.5C14.7533 21.5 10.5 17.2467 10.5 12Z" fill="white"/>
<path fill-rule="evenodd" clip-rule="evenodd" d="M20 21.5C12.5442 21.5 6.5 27.5442 6.5 35V36C6.5 36.8284 5.82843 37.5 5 37.5C4.17157 37.5 3.5 36.8284 3.5 36V35C3.5 25.8873 10.8873 18.5 20 18.5C29.1127 18.5 36.5 25.8873 36.5 35V36C36.5 36.8284 35.8284 37.5 35 37.5C34.1716 37.5 33.5 36.8284 33.5 36V35C33.5 27.5442 27.4558 21.5 20 21.5Z" fill="white"/>
</svg>
