<svg width="40" height="40" viewBox="0 0 40 40" fill="none" xmlns="http://www.w3.org/2000/svg">
<g id="icon-reset">
<path id="Vector (Stroke)" fill-rule="evenodd" clip-rule="evenodd" d="M31.7682 13.3737L26.2567 12.2715C25.4444 12.109 24.6542 12.6358 24.4917 13.4482C24.3292 14.2605 24.8561 15.0508 25.6684 15.2132L34.3945 16.9583C34.8059 17.0405 35.2329 16.9467 35.572 16.6997C35.911 16.4526 36.1312 16.0749 36.1789 15.6581L37.2338 6.44817C37.3281 5.62512 36.7373 4.88149 35.9142 4.78722C35.0912 4.69294 34.3476 5.28373 34.2533 6.10678L33.7142 10.8133C29.4779 4.48187 21.2587 1.74271 13.8962 4.67581C5.43056 8.04837 1.30237 17.6435 4.67654 26.1073C8.0506 34.5708 17.6485 38.6972 26.1139 35.3248C30.29 33.6611 33.4122 30.4805 35.0964 26.6725C35.4315 25.9148 35.0889 25.029 34.3313 24.6939C33.5736 24.3588 32.6878 24.7014 32.3527 25.459C30.9733 28.5779 28.4214 31.1762 25.0036 32.5378C18.0766 35.2974 10.2236 31.9205 7.46326 24.9963C4.70297 18.0724 8.07978 10.2223 15.0065 7.46279C21.3653 4.92953 28.5046 7.56744 31.7682 13.3737Z" fill="#2E6FF2"/>
</g>
</svg>
