<svg width="25" height="24" viewBox="0 0 25 24" fill="none" xmlns="http://www.w3.org/2000/svg">
<path fill-rule="evenodd" clip-rule="evenodd" d="M12.5 3.3C7.69512 3.3 3.8 7.19512 3.8 12C3.8 16.8049 7.69512 20.7 12.5 20.7C17.3049 20.7 21.2 16.8049 21.2 12C21.2 7.19512 17.3049 3.3 12.5 3.3ZM2 12C2 6.20101 6.70101 1.5 12.5 1.5C18.299 1.5 23 6.20101 23 12C23 17.799 18.299 22.5 12.5 22.5C6.70101 22.5 2 17.799 2 12Z" fill="#3075FF"/>
<path fill-rule="evenodd" clip-rule="evenodd" d="M16.6544 8.89106C17.046 9.19726 17.1152 9.7629 16.8089 10.1544L12.5859 15.5544C12.4282 15.7561 12.1921 15.881 11.9367 15.898C11.6814 15.915 11.4308 15.8225 11.2478 15.6436L8.27086 12.7334C7.91543 12.386 7.90896 11.8161 8.25643 11.4607C8.60389 11.1053 9.1737 11.0988 9.52914 11.4463L11.7872 13.6537L15.3911 9.04557C15.6973 8.65403 16.2629 8.58486 16.6544 8.89106Z" fill="#3075FF"/>
</svg>
