<svg width="42" height="42" viewBox="0 0 42 42" fill="none" xmlns="http://www.w3.org/2000/svg">
<path fill-rule="evenodd" clip-rule="evenodd" d="M21 13.6499C16.5541 13.6499 12.95 17.254 12.95 21.6999L12.95 25.5121C12.95 25.9562 12.8293 26.3919 12.6009 26.7727L11.9725 27.8199C11.8326 28.0531 12.0006 28.3499 12.2727 28.3499H29.7273C29.9994 28.3499 30.1674 28.0531 30.0275 27.8199L29.3991 26.7727C29.1707 26.3919 29.05 25.9562 29.05 25.5122L29.05 21.6999C29.05 17.254 25.4459 13.6499 21 13.6499ZM10.85 21.6999C10.85 16.0942 15.3943 11.5499 21 11.5499C26.6057 11.5499 31.15 16.0942 31.15 21.6999L31.15 25.5121C31.15 25.5756 31.1672 25.6378 31.1999 25.6922L31.8282 26.7394C32.808 28.3724 31.6317 30.4499 29.7273 30.4499H12.2727C10.3683 30.4499 9.19201 28.3724 10.1718 26.7394L10.8001 25.6922C10.8328 25.6378 10.85 25.5756 10.85 25.5121L10.85 21.6999Z" fill="#8D9299"/>
<path fill-rule="evenodd" clip-rule="evenodd" d="M16.45 32.2C16.45 31.6201 16.9201 31.15 17.5 31.15H24.5C25.0799 31.15 25.55 31.6201 25.55 32.2C25.55 32.7799 25.0799 33.25 24.5 33.25H17.5C16.9201 33.25 16.45 32.7799 16.45 32.2Z" fill="#8D9299"/>
<path d="M22.4 11.1999C22.4 11.9731 21.7732 12.5999 21 12.5999C20.2268 12.5999 19.6 11.9731 19.6 11.1999C19.6 10.4267 20.2268 9.79993 21 9.79993C21.7732 9.79993 22.4 10.4267 22.4 11.1999Z" fill="#8D9299"/>
<path fill-rule="evenodd" clip-rule="evenodd" d="M21 10.5C20.6134 10.5 20.3 10.8134 20.3 11.2C20.3 11.5866 20.6134 11.9 21 11.9C21.3866 11.9 21.7 11.5866 21.7 11.2C21.7 10.8134 21.3866 10.5 21 10.5ZM18.9 11.2C18.9 10.0402 19.8402 9.09998 21 9.09998C22.1598 9.09998 23.1 10.0402 23.1 11.2C23.1 12.3598 22.1598 13.3 21 13.3C19.8402 13.3 18.9 12.3598 18.9 11.2Z" fill="#8D9299"/>
</svg>
