<svg width="40" height="40" viewBox="0 0 40 40" fill="none" xmlns="http://www.w3.org/2000/svg">
<g clip-path="url(#clip0_1875_331)">
<path fill-rule="evenodd" clip-rule="evenodd" d="M26.72 9.3C25.42 7.47 24.12 6 23.15 4.98C22.66 4.47 21.48 3.36 21.48 3.36C20.92 2.88 20.08 2.88 19.52 3.36C19.52 3.36 18.34 4.47 17.85 4.98C16.88 6 15.58 7.47 14.28 9.3C11.7 12.91 9 18.06 9 23.86C9 29.02 10.75 32.39 13.2 34.43C15.6 36.42 18.47 37 20.5 37C22.53 37 25.4 36.42 27.79 34.43C30.25 32.39 32 29.02 32 23.86C32 18.06 29.3 12.91 26.72 9.3ZM28.46 27.27C28.26 27.96 27.82 29.01 27.1 30.05C26.38 31.1 25.34 32.19 23.95 32.89C23.45 33.14 22.85 32.94 22.61 32.44C22.36 31.95 22.56 31.35 23.05 31.1C24.06 30.6 24.86 29.78 25.45 28.92C26.05 28.05 26.4 27.2 26.54 26.72C26.69 26.19 27.24 25.88 27.77 26.04C28.31 26.19 28.61 26.74 28.46 27.27Z" fill="white"/>
</g>
<defs>
<clipPath id="clip0_1875_331">
<rect width="23" height="34" fill="white" transform="translate(9 3)"/>
</clipPath>
</defs>
</svg>
