<svg width="30" height="27" viewBox="0 0 30 27" fill="none" xmlns="http://www.w3.org/2000/svg">
<g clip-path="url(#clip0_3211_6035)">
<path d="M8.34115 4.29946C8.34115 1.92552 6.47335 0 4.17058 0C1.8678 0 0 1.92552 0 4.29946C0 6.67339 1.8678 8.59891 4.17058 8.59891C6.47335 8.59891 8.34115 6.67339 8.34115 4.29946Z" fill="#D9DBE0"/>
<path d="M25.8288 0C23.526 0 21.6582 1.92552 21.6582 4.29946C21.6582 6.67339 23.526 8.59891 25.8288 8.59891C28.1316 8.59891 29.9994 6.67339 29.9994 4.29946C29.9994 1.92552 28.1316 0 25.8288 0V0Z" fill="#D9DBE0"/>
<path d="M28.2104 19.1682C27.2634 18.6657 26.0988 19.0462 25.6078 20.0153C25.0886 21.049 24.0855 22.3842 22.2825 22.8795C20.2832 23.4251 17.5893 22.6785 16.7686 20.6829C16.7545 20.6542 16.7335 20.6255 16.7195 20.5968C16.6844 20.525 16.6493 20.446 16.6072 20.3742C19.7851 19.7712 22.1913 17.0434 22.1913 14.5165C22.1913 11.6595 19.1187 9.75 15.3234 9.75C11.5282 9.75 8.45549 11.6595 8.45549 14.5165C8.45549 16.8926 10.5811 19.441 13.4784 20.2378C13.4503 20.2737 13.4223 20.3096 13.3942 20.3455C13.3451 20.4173 13.31 20.5034 13.2679 20.5824C13.2539 20.6183 13.2329 20.6398 13.2188 20.6757C12.3981 22.6642 9.7042 23.4179 7.70486 22.8723C5.90194 22.377 4.89876 21.0418 4.37963 20.0081C3.88856 19.039 2.73105 18.6586 1.77697 19.161C0.829913 19.6635 0.458105 20.8552 0.949173 21.8243C2.19087 24.2865 4.23932 26.0165 6.70869 26.6913C7.45231 26.8923 8.24503 27 9.05178 27C11.1844 27 13.3942 26.275 15.0007 24.7818C16.6072 26.275 18.817 27 20.9496 27C21.7564 27 22.5421 26.8995 23.2927 26.6913C25.7621 26.0165 27.8106 24.2865 29.0523 21.8243C29.5433 20.8552 29.1715 19.6635 28.2245 19.161L28.2104 19.1682Z" fill="#D9DBE0"/>
</g>
<defs>
<clipPath id="clip0_3211_6035">
<rect width="30" height="27" fill="white"/>
</clipPath>
</defs>
</svg>
