<svg width="18" height="18" viewBox="0 0 18 18" fill="none" xmlns="http://www.w3.org/2000/svg">
<path d="M7.2 9C7.2 9.49706 6.79706 9.9 6.3 9.9C5.80294 9.9 5.4 9.49706 5.4 9C5.4 8.50294 5.80294 8.1 6.3 8.1C6.79706 8.1 7.2 8.50294 7.2 9Z" fill="#4B7AF2"/>
<path d="M11.7 9.9C12.1971 9.9 12.6 9.49706 12.6 9C12.6 8.50294 12.1971 8.1 11.7 8.1C11.2029 8.1 10.8 8.50294 10.8 9C10.8 9.49706 11.2029 9.9 11.7 9.9Z" fill="#4B7AF2"/>
<path fill-rule="evenodd" clip-rule="evenodd" d="M2.7 1.125C1.83015 1.125 1.125 1.83015 1.125 2.7V15.3C1.125 16.1698 1.83015 16.875 2.7 16.875H15.3C16.1698 16.875 16.875 16.1698 16.875 15.3V2.7C16.875 1.83015 16.1698 1.125 15.3 1.125H2.7ZM8.325 2.475H2.7C2.57574 2.475 2.475 2.57574 2.475 2.7V15.3C2.475 15.4243 2.57574 15.525 2.7 15.525H8.325V2.475ZM9.675 2.475H15.3C15.4243 2.475 15.525 2.57574 15.525 2.7V15.3C15.525 15.4243 15.4243 15.525 15.3 15.525H9.675V2.475Z" fill="#4B7AF2"/>
</svg>
