<svg width="40" height="40" viewBox="0 0 40 40" fill="none" xmlns="http://www.w3.org/2000/svg">
<path fill-rule="evenodd" clip-rule="evenodd" d="M20 5.5C11.9919 5.5 5.5 11.9919 5.5 20C5.5 28.0081 11.9919 34.5 20 34.5C28.0081 34.5 34.5 28.0081 34.5 20C34.5 11.9919 28.0081 5.5 20 5.5ZM2.5 20C2.5 10.335 10.335 2.5 20 2.5C29.665 2.5 37.5 10.335 37.5 20C37.5 29.665 29.665 37.5 20 37.5C10.335 37.5 2.5 29.665 2.5 20Z" fill="white"/>
<path fill-rule="evenodd" clip-rule="evenodd" d="M26.9241 14.8184C27.5766 15.3288 27.6919 16.2715 27.1816 16.9241L20.1431 25.9241C19.8803 26.2601 19.4869 26.4683 19.0612 26.4967C18.6356 26.525 18.218 26.3708 17.913 26.0726L12.9514 21.2224C12.359 20.6433 12.3483 19.6936 12.9274 19.1012C13.5065 18.5088 14.4562 18.498 15.0486 19.0771L18.8121 22.7562L24.8184 15.076C25.3288 14.4234 26.2715 14.3081 26.9241 14.8184Z" fill="white"/>
</svg>
