<svg width="24" height="24" viewBox="0 0 24 24" fill="none" xmlns="http://www.w3.org/2000/svg">
<g id="icon-&#62;">
<path id="Vector (Stroke)" fill-rule="evenodd" clip-rule="evenodd" d="M5.23432 18.7722C4.9219 18.4685 4.9219 17.976 5.23432 17.6723L11.0686 12L5.23431 6.32775C4.9219 6.02401 4.9219 5.53155 5.23431 5.22781C5.54673 4.92406 6.05327 4.92406 6.36569 5.22781L12.7657 11.45C13.0781 11.7538 13.0781 12.2462 12.7657 12.55L6.36569 18.7722C6.05327 19.0759 5.54674 19.0759 5.23432 18.7722Z" fill="#8D9299"/>
<path id="Vector (Stroke)_2" fill-rule="evenodd" clip-rule="evenodd" d="M13.2343 18.7722C12.9219 18.4685 12.9219 17.976 13.2343 17.6723L19.0686 12L13.2343 6.32775C12.9219 6.02401 12.9219 5.53155 13.2343 5.22781C13.5467 4.92406 14.0533 4.92406 14.3657 5.22781L20.7657 11.45C21.0781 11.7538 21.0781 12.2462 20.7657 12.55L14.3657 18.7722C14.0533 19.0759 13.5467 19.0759 13.2343 18.7722Z" fill="#8D9299"/>
</g>
</svg>
