<svg width="40" height="40" viewBox="0 0 40 40" fill="none" xmlns="http://www.w3.org/2000/svg">
<path fill-rule="evenodd" clip-rule="evenodd" d="M24.3197 6.16248C16.6774 3.77674 8.54806 8.03804 6.16232 15.6804C3.77658 23.3227 8.03788 31.452 15.6802 33.8378C23.3225 36.2235 31.4519 31.9622 33.8376 24.3199C35.3488 19.479 34.1945 14.4422 31.1969 10.7902C30.6713 10.1499 30.7643 9.20468 31.4046 8.67908C32.045 8.15348 32.9901 8.24649 33.5157 8.88683C37.1273 13.2867 38.5262 19.368 36.7013 25.2139C33.8218 34.4378 24.0101 39.5809 14.7862 36.7015C5.56233 33.822 0.41915 24.0103 3.29862 14.7864C6.17809 5.56248 15.9898 0.419302 25.2137 3.29877C26.0045 3.54563 26.4454 4.38682 26.1986 5.17761C25.9517 5.9684 25.1105 6.40934 24.3197 6.16248Z" fill="#2E6FF2"/>
<path fill-rule="evenodd" clip-rule="evenodd" d="M19.9996 18.5001C19.1712 18.5001 18.4996 19.1717 18.4996 20.0001C18.4996 20.8285 19.1712 21.5001 19.9996 21.5001C20.8281 21.5001 21.4996 20.8285 21.4996 20.0001C21.4996 19.1717 20.8281 18.5001 19.9996 18.5001ZM15.4996 20.0001C15.4996 17.5148 17.5144 15.5001 19.9996 15.5001C22.4849 15.5001 24.4996 17.5148 24.4996 20.0001C24.4996 22.4854 22.4849 24.5001 19.9996 24.5001C17.5144 24.5001 15.4996 22.4854 15.4996 20.0001Z" fill="#2E6FF2"/>
<path fill-rule="evenodd" clip-rule="evenodd" d="M25.8246 11.1489C26.5166 11.6043 26.7084 12.5344 26.253 13.2265L21.253 20.8246C20.7976 21.5166 19.8674 21.7084 19.1754 21.253C18.4834 20.7976 18.2916 19.8674 18.747 19.1754L23.747 11.5773C24.2024 10.8853 25.1325 10.6935 25.8246 11.1489Z" fill="#2E6FF2"/>
</svg>
