<svg width="40" height="40" viewBox="0 0 40 40" fill="none" xmlns="http://www.w3.org/2000/svg">
<path fill-rule="evenodd" clip-rule="evenodd" d="M2.5 12C2.5 6.75329 6.75329 2.5 12 2.5H28C33.2467 2.5 37.5 6.75329 37.5 12V28C37.5 33.2467 33.2467 37.5 28 37.5H12C6.75329 37.5 2.5 33.2467 2.5 28V12ZM12 5.5C8.41015 5.5 5.5 8.41015 5.5 12V28C5.5 31.5899 8.41015 34.5 12 34.5H28C31.5899 34.5 34.5 31.5899 34.5 28V12C34.5 8.41015 31.5899 5.5 28 5.5H12Z" fill="white"/>
<path fill-rule="evenodd" clip-rule="evenodd" d="M13.5 11.5C12.3954 11.5 11.5 12.3954 11.5 13.5C11.5 14.6046 12.3954 15.5 13.5 15.5C14.6046 15.5 15.5 14.6046 15.5 13.5C15.5 12.3954 14.6046 11.5 13.5 11.5ZM8.5 13.5C8.5 10.7386 10.7386 8.5 13.5 8.5C16.2614 8.5 18.5 10.7386 18.5 13.5C18.5 16.2614 16.2614 18.5 13.5 18.5C10.7386 18.5 8.5 16.2614 8.5 13.5Z" fill="white"/>
<path fill-rule="evenodd" clip-rule="evenodd" d="M30.033 20.9425C29.0162 19.6715 27.0753 19.6956 26.0905 20.9915L21.9032 26.5011C20.1827 28.7649 17.0204 29.3441 14.6093 27.8372L12.4034 26.4585C11.4162 25.8415 10.1338 25.9875 9.3106 26.8107L5.06065 31.0607L2.93933 28.9393L7.18928 24.6894C9.00026 22.8784 11.8215 22.5571 13.9934 23.9145L16.1993 25.2932C17.2952 25.9782 18.7327 25.7149 19.5147 24.6859L23.702 19.1763C25.8687 16.3253 30.1387 16.2722 32.3757 19.0684L37.1713 25.063L34.8287 26.937L30.033 20.9425Z" fill="white"/>
</svg>
