<svg width="40" height="40" viewBox="0 0 40 40" fill="none" xmlns="http://www.w3.org/2000/svg">
<path fill-rule="evenodd" clip-rule="evenodd" d="M2.5 6C2.5 4.067 4.067 2.5 6 2.5H34C35.933 2.5 37.5 4.067 37.5 6V34C37.5 35.933 35.933 37.5 34 37.5H6C4.067 37.5 2.5 35.933 2.5 34V6ZM6 5.5C5.72386 5.5 5.5 5.72386 5.5 6V34C5.5 34.2761 5.72386 34.5 6 34.5H34C34.2761 34.5 34.5 34.2761 34.5 34V6C34.5 5.72386 34.2761 5.5 34 5.5H6Z" fill="#2E6FF2"/>
<path fill-rule="evenodd" clip-rule="evenodd" d="M2.5 14C2.5 13.1716 3.17157 12.5 4 12.5H36C36.8284 12.5 37.5 13.1716 37.5 14C37.5 14.8284 36.8284 15.5 36 15.5H4C3.17157 15.5 2.5 14.8284 2.5 14Z" fill="#2E6FF2"/>
<path fill-rule="evenodd" clip-rule="evenodd" d="M2.5 26C2.5 25.1716 3.17157 24.5 4 24.5H36C36.8284 24.5 37.5 25.1716 37.5 26C37.5 26.8284 36.8284 27.5 36 27.5H4C3.17157 27.5 2.5 26.8284 2.5 26Z" fill="#2E6FF2"/>
<path fill-rule="evenodd" clip-rule="evenodd" d="M20 2.5C20.8284 2.5 21.5 3.17157 21.5 4V13C21.5 13.8284 20.8284 14.5 20 14.5C19.1716 14.5 18.5 13.8284 18.5 13V4C18.5 3.17157 19.1716 2.5 20 2.5Z" fill="#2E6FF2"/>
<path fill-rule="evenodd" clip-rule="evenodd" d="M20 25.5C20.8284 25.5 21.5 26.1716 21.5 27V36C21.5 36.8284 20.8284 37.5 20 37.5C19.1716 37.5 18.5 36.8284 18.5 36V27C18.5 26.1716 19.1716 25.5 20 25.5Z" fill="#2E6FF2"/>
<path fill-rule="evenodd" clip-rule="evenodd" d="M14 12.5C14.8284 12.5 15.5 13.1716 15.5 14V26C15.5 26.8284 14.8284 27.5 14 27.5C13.1716 27.5 12.5 26.8284 12.5 26V14C12.5 13.1716 13.1716 12.5 14 12.5Z" fill="#2E6FF2"/>
<path fill-rule="evenodd" clip-rule="evenodd" d="M26 12.5C26.8284 12.5 27.5 13.1716 27.5 14V26C27.5 26.8284 26.8284 27.5 26 27.5C25.1716 27.5 24.5 26.8284 24.5 26V14C24.5 13.1716 25.1716 12.5 26 12.5Z" fill="#2E6FF2"/>
</svg>
