<svg width="40" height="40" viewBox="0 0 40 40" fill="none" xmlns="http://www.w3.org/2000/svg">
<g clip-path="url(#clip0_1875_332)">
<path fill-rule="evenodd" clip-rule="evenodd" d="M9.09 25.79C9.09 25.79 9.09 25.89 9.11 25.94L26.31 8.73999C25.15 7.16999 24.02 5.89999 23.15 4.97999C22.98 4.80999 22.83 4.64999 22.68 4.50999C22.59 4.41999 22.5 4.32999 22.41 4.23999C22.17 4.01999 21.94 3.79999 21.77 3.62999C21.71 3.56999 21.66 3.52999 21.62 3.48999C21.58 3.44999 21.54 3.41999 21.52 3.39999L21.5 3.37999H21.49H21.48C20.92 2.88999 20.08 2.88999 19.52 3.36999L19.51 3.37999H19.5L19.48 3.40999C19.46 3.42999 19.42 3.45999 19.38 3.49999C19.34 3.53999 19.29 3.57999 19.23 3.63999C19.06 3.80999 18.83 4.02999 18.59 4.24999C18.5 4.33999 18.41 4.42999 18.32 4.51999C18.17 4.65999 18.02 4.81999 17.85 4.98999C16.88 6.00999 15.58 7.48999 14.28 9.30999C11.7 12.92 9 18.07 9 23.87C9 24.23 9.01 24.59 9.03 24.94C9.03 25.24 9.06 25.52 9.09 25.8V25.79Z" fill="white"/>
<path fill-rule="evenodd" clip-rule="evenodd" d="M32.5601 7.44C31.9701 6.85 31.0201 6.85 30.4401 7.44L6.44006 31.44C5.85006 32.03 5.85006 32.98 6.44006 33.56C7.03006 34.15 7.98006 34.15 8.56006 33.56L32.5601 9.56C33.1501 8.97 33.1501 8.02 32.5601 7.44Z" fill="white"/>
<path fill-rule="evenodd" clip-rule="evenodd" d="M11.86 33.09C12.28 33.59 12.73 34.04 13.2 34.43C15.6 36.42 18.47 37 20.5 37C22.53 37 25.4 36.43 27.79 34.43C30.24 32.39 32 29.02 32 23.86C32 20.64 31.17 17.63 29.99 14.96L11.86 33.09ZM28.46 27.27C28.26 27.96 27.82 29.01 27.1 30.05C26.38 31.09 25.34 32.19 23.95 32.89C23.46 33.14 22.86 32.94 22.61 32.44C22.36 31.94 22.56 31.35 23.06 31.1C24.06 30.6 24.86 29.78 25.46 28.91C26.06 28.04 26.41 27.19 26.55 26.72C26.7 26.19 27.26 25.88 27.79 26.03C28.32 26.18 28.63 26.74 28.48 27.27H28.46Z" fill="white"/>
</g>
<defs>
<clipPath id="clip0_1875_332">
<rect width="27" height="34" fill="white" transform="translate(6 3)"/>
</clipPath>
</defs>
</svg>
