<svg width="40" height="40" viewBox="0 0 40 40" fill="none" xmlns="http://www.w3.org/2000/svg">
<path fill-rule="evenodd" clip-rule="evenodd" d="M7 7.5C6.17157 7.5 5.5 8.17157 5.5 9V31C5.5 32.3807 6.61929 33.5 8 33.5H32C33.3807 33.5 34.5 32.3807 34.5 31V13C34.5 12.1716 33.8284 11.5 33 11.5H22.5C21.0836 11.5 19.7498 10.8331 18.9 9.7L17.7 8.1C17.4167 7.72229 16.9721 7.5 16.5 7.5H7ZM2.5 9C2.5 6.51472 4.51472 4.5 7 4.5H16.5C17.9164 4.5 19.2502 5.16687 20.1 6.3L21.3 7.9C21.5833 8.27771 22.0279 8.5 22.5 8.5H33C35.4853 8.5 37.5 10.5147 37.5 13V31C37.5 34.0376 35.0376 36.5 32 36.5H8C4.96243 36.5 2.5 34.0376 2.5 31V9Z" fill="#2E6FF2"/>
<path fill-rule="evenodd" clip-rule="evenodd" d="M20 15.5C20.8284 15.5 21.5 16.1716 21.5 17V23.5901L23.9864 21.3109C24.5971 20.7511 25.546 20.7924 26.1057 21.4031C26.6655 22.0138 26.6243 22.9626 26.0136 23.5224L21.0136 28.1057C20.4401 28.6314 19.5599 28.6314 18.9864 28.1057L13.9864 23.5224C13.3757 22.9626 13.3345 22.0138 13.8943 21.4031C14.4541 20.7924 15.4029 20.7511 16.0136 21.3109L18.5 23.5901L18.5 17C18.5 16.1716 19.1716 15.5 20 15.5Z" fill="#2E6FF2"/>
</svg>
