<svg width="40" height="40" viewBox="0 0 40 40" fill="none" xmlns="http://www.w3.org/2000/svg">
<path fill-rule="evenodd" clip-rule="evenodd" d="M2.5 12C2.5 6.75329 6.75329 2.5 12 2.5H28C33.2467 2.5 37.5 6.75329 37.5 12V28C37.5 33.2467 33.2467 37.5 28 37.5H12C6.75329 37.5 2.5 33.2467 2.5 28V12ZM12 5.5C8.41015 5.5 5.5 8.41015 5.5 12V28C5.5 31.5899 8.41015 34.5 12 34.5H28C31.5899 34.5 34.5 31.5899 34.5 28V12C34.5 8.41015 31.5899 5.5 28 5.5H12Z" fill="#2E6FF2"/>
<path fill-rule="evenodd" clip-rule="evenodd" d="M20 12.5C20.8284 12.5 21.5 13.1716 21.5 14V26C21.5 26.8284 20.8284 27.5 20 27.5C19.1716 27.5 18.5 26.8284 18.5 26V14C18.5 13.1716 19.1716 12.5 20 12.5Z" fill="#2E6FF2"/>
<path fill-rule="evenodd" clip-rule="evenodd" d="M12.5 20C12.5 19.1716 13.1716 18.5 14 18.5L26 18.5C26.8284 18.5 27.5 19.1716 27.5 20C27.5 20.8284 26.8284 21.5 26 21.5L14 21.5C13.1716 21.5 12.5 20.8284 12.5 20Z" fill="#2E6FF2"/>
</svg>
