<svg width="20" height="20" viewBox="0 0 20 20" fill="none" xmlns="http://www.w3.org/2000/svg">
<path fill-rule="evenodd" clip-rule="evenodd" d="M10 8.75C9.30964 8.75 8.75 9.30964 8.75 10C8.75 10.6904 9.30964 11.25 10 11.25C10.6904 11.25 11.25 10.6904 11.25 10C11.25 9.30964 10.6904 8.75 10 8.75ZM7.25 10C7.25 8.48122 8.48122 7.25 10 7.25C11.5188 7.25 12.75 8.48122 12.75 10C12.75 11.5188 11.5188 12.75 10 12.75C8.48122 12.75 7.25 11.5188 7.25 10Z" fill="#8D9299"/>
<path d="M9.99743 18.9949C8.97943 18.9949 8.11568 18.337 7.84319 17.3552L7.71979 16.9183C7.66324 16.7127 7.51414 16.5431 7.31877 16.466C7.12339 16.3838 6.90231 16.3992 6.71208 16.502L6.31105 16.7333C5.42674 17.2319 4.34704 17.088 3.62725 16.3684C2.90746 15.6488 2.7635 14.5745 3.26221 13.6905L3.49357 13.2844C3.60154 13.0994 3.61183 12.8784 3.52956 12.6779C3.4473 12.4774 3.28278 12.3335 3.07712 12.277L2.63496 12.1536C1.6581 11.8812 1 11.0177 1 10C1 8.9823 1.6581 8.11879 2.6401 7.84637L3.08226 7.72302C3.28792 7.66648 3.45244 7.51742 3.5347 7.3221C3.61697 7.12165 3.60154 6.90577 3.49871 6.71559L3.26735 6.31468C2.76864 5.43061 2.9126 4.35123 3.63239 3.63164C4.35219 2.91205 5.42674 2.76813 6.31105 3.26671L6.71722 3.498C6.90231 3.60594 7.12339 3.61622 7.32391 3.53398C7.52442 3.45174 7.66838 3.28726 7.72494 3.08167L7.84833 2.63963C8.12082 1.66305 8.98458 1 10.0026 1C11.0206 1 11.8843 1.65791 12.1568 2.63963L12.2802 3.08167C12.3368 3.28726 12.4859 3.45174 12.6812 3.53398C12.8817 3.61622 13.1028 3.6008 13.2879 3.498L13.6941 3.26671C14.5784 2.76813 15.6581 2.91205 16.3728 3.63164C17.0925 4.35123 17.2365 5.42547 16.7378 6.30954L16.5064 6.71559C16.3985 6.90063 16.3882 7.12165 16.4704 7.3221C16.5527 7.52256 16.7172 7.66648 16.9229 7.72302L17.365 7.84637C18.3419 8.11879 19 8.9823 19 10C19 11.0177 18.3419 11.8812 17.3599 12.1536L16.9177 12.277C16.7121 12.3335 16.5476 12.4826 16.4653 12.6779C16.383 12.8732 16.3985 13.0942 16.5013 13.2844L16.7326 13.6905C17.2314 14.5745 17.0874 15.6539 16.3676 16.3684C15.6478 17.088 14.5733 17.2319 13.6889 16.7333L13.2828 16.502C13.0977 16.3992 12.8766 16.3838 12.6761 16.466C12.4756 16.5483 12.3316 16.7127 12.2751 16.9183L12.1517 17.3604C11.8792 18.3421 11.0154 19 9.99743 19V18.9949ZM7.05656 14.8675C7.34447 14.8675 7.63753 14.924 7.91517 15.0371C8.5527 15.3044 9.02571 15.839 9.2108 16.502L9.33419 16.944C9.46272 17.4169 9.87918 17.4529 10.0026 17.4529C10.126 17.4529 10.5373 17.4169 10.671 16.944L10.7943 16.502C10.9794 15.8338 11.4524 15.2993 12.0951 15.032C12.7326 14.7647 13.4473 14.811 14.0488 15.1502L14.455 15.3815C14.8766 15.6179 15.1954 15.3558 15.2828 15.2684C15.3702 15.181 15.6375 14.8624 15.3959 14.4409L15.1645 14.0348C14.8252 13.4335 14.7789 12.719 15.0463 12.0817C15.3136 11.4392 15.8483 10.9663 16.5167 10.7864L16.9589 10.6631C17.4319 10.5346 17.4679 10.1182 17.4679 9.99486C17.4679 9.8715 17.4319 9.46031 16.9589 9.32667L16.5167 9.20331C15.8483 9.01828 15.3136 8.5454 15.0514 7.90805C14.7841 7.2707 14.8303 6.55625 15.1697 5.95488L15.401 5.54883C15.6427 5.12736 15.3753 4.80868 15.2879 4.7213C15.2005 4.63392 14.8817 4.36665 14.4602 4.60822L14.054 4.83952C13.4524 5.1839 12.7378 5.22502 12.1003 4.95774C11.4576 4.69046 10.9846 4.15591 10.8046 3.49286L10.6812 3.05083C10.5527 2.57796 10.1362 2.54198 10.0129 2.54198C9.88946 2.54198 9.47815 2.57796 9.34447 3.05083L9.22108 3.49286C9.03599 4.16105 8.56298 4.6956 7.92545 4.95774C7.28792 5.22502 6.57326 5.17876 5.97172 4.83952L5.56555 4.60822C5.14396 4.36665 4.82519 4.63392 4.73779 4.7213C4.65039 4.80868 4.38303 5.12736 4.62468 5.54883L4.85604 5.94974C5.19537 6.55625 5.24165 7.26556 4.97429 7.90805C4.70694 8.5454 4.17224 9.01828 3.509 9.20331L3.06684 9.32667C2.59383 9.45517 2.55784 9.8715 2.55784 9.99486C2.55784 10.1182 2.59383 10.5294 3.06684 10.6631L3.509 10.7864C4.17738 10.9714 4.71208 11.4443 4.97429 12.0868C5.24165 12.7242 5.19537 13.4386 4.85604 14.04L4.62468 14.446C4.38303 14.8675 4.65039 15.1862 4.73779 15.2736C4.82519 15.3609 5.14396 15.6282 5.56555 15.3866L5.96658 15.1553C6.31105 14.96 6.68638 14.8624 7.06684 14.8624L7.05656 14.8675Z" fill="#8D9299"/>
</svg>
