<svg width="40" height="40" viewBox="0 0 40 40" fill="none" xmlns="http://www.w3.org/2000/svg">
<path fill-rule="evenodd" clip-rule="evenodd" d="M7 7.5C6.17157 7.5 5.5 8.17157 5.5 9V31C5.5 32.3807 6.61929 33.5 8 33.5H32C33.3807 33.5 34.5 32.3807 34.5 31V13C34.5 12.1716 33.8284 11.5 33 11.5H22.5C21.0836 11.5 19.7498 10.8331 18.9 9.7L17.7 8.1C17.4167 7.72229 16.9721 7.5 16.5 7.5H7ZM2.5 9C2.5 6.51472 4.51472 4.5 7 4.5H16.5C17.9164 4.5 19.2502 5.16687 20.1 6.3L21.3 7.9C21.5833 8.27771 22.0279 8.5 22.5 8.5H33C35.4853 8.5 37.5 10.5147 37.5 13V31C37.5 34.0376 35.0376 36.5 32 36.5H8C4.96243 36.5 2.5 34.0376 2.5 31V9Z" fill="#2E6FF2"/>
<path fill-rule="evenodd" clip-rule="evenodd" d="M20 28.5C19.1716 28.5 18.5 27.8284 18.5 27L18.5 20.4099L16.0136 22.6891C15.4029 23.2489 14.454 23.2076 13.8943 22.5969C13.3345 21.9862 13.3757 21.0374 13.9864 20.4776L18.9864 15.8943C19.5599 15.3686 20.4401 15.3686 21.0136 15.8943L26.0136 20.4776C26.6243 21.0374 26.6655 21.9862 26.1057 22.5969C25.5459 23.2076 24.5971 23.2489 23.9864 22.6891L21.5 20.4099L21.5 27C21.5 27.8284 20.8284 28.5 20 28.5Z" fill="#2E6FF2"/>
</svg>
