<svg width="13" height="17" viewBox="0 0 13 17" fill="none" xmlns="http://www.w3.org/2000/svg">
<path fill-rule="evenodd" clip-rule="evenodd" d="M4.57407 0.5C2.04788 0.5 0 2.44436 0 4.84286V10.3286C0 13.737 2.91015 16.5 6.5 16.5C10.0899 16.5 13 13.737 13 10.3286V4.84286C13 2.44436 10.9521 0.5 8.42593 0.5H4.57407ZM1.44444 4.84286C1.44444 3.20178 2.84563 1.87143 4.57407 1.87143H6.25926L6.25926 6.9H1.44444V4.84286ZM1.44444 8.27143V10.3286C1.44444 12.9795 3.70789 15.1286 6.5 15.1286C9.29211 15.1286 11.5556 12.9795 11.5556 10.3286V8.27143H1.44444Z" fill="#2E6FF2"/>
</svg>
