<svg width="40" height="40" viewBox="0 0 40 40" fill="none" xmlns="http://www.w3.org/2000/svg">
<path fill-rule="evenodd" clip-rule="evenodd" d="M26.5 13C26.5 12.1716 27.1716 11.5 28 11.5L36 11.5C36.8284 11.5 37.5 12.1716 37.5 13C37.5 13.8284 36.8284 14.5 36 14.5L28 14.5C27.1716 14.5 26.5 13.8284 26.5 13Z" fill="#2E6FF2"/>
<path fill-rule="evenodd" clip-rule="evenodd" d="M26.5 5C26.5 4.17157 27.1716 3.5 28 3.5L36 3.5C36.8284 3.5 37.5 4.17157 37.5 5C37.5 5.82842 36.8284 6.5 36 6.5L28 6.5C27.1716 6.5 26.5 5.82843 26.5 5Z" fill="#2E6FF2"/>
<path fill-rule="evenodd" clip-rule="evenodd" d="M11.3292 14.3416C10.5882 13.9711 10.2879 13.0701 10.6584 12.3292L14.6584 4.32917C15.0289 3.5882 15.9299 3.28787 16.6708 3.65835C17.4118 4.02883 17.7121 4.92984 17.3417 5.67081L13.3417 13.6708C12.9712 14.4118 12.0702 14.7121 11.3292 14.3416Z" fill="#2E6FF2"/>
<path fill-rule="evenodd" clip-rule="evenodd" d="M2.5 20C2.5 19.1716 3.17157 18.5 4 18.5L36 18.5C36.8284 18.5 37.5 19.1716 37.5 20C37.5 20.8284 36.8284 21.5 36 21.5L4 21.5C3.17157 21.5 2.5 20.8284 2.5 20Z" fill="#2E6FF2"/>
<path fill-rule="evenodd" clip-rule="evenodd" d="M2.5 27C2.5 26.1716 3.17157 25.5 4 25.5L36 25.5C36.8284 25.5 37.5 26.1716 37.5 27C37.5 27.8284 36.8284 28.5 36 28.5L4 28.5C3.17157 28.5 2.5 27.8284 2.5 27Z" fill="#2E6FF2"/>
<path fill-rule="evenodd" clip-rule="evenodd" d="M2.5 35C2.5 34.1716 3.17157 33.5 4 33.5L36 33.5C36.8284 33.5 37.5 34.1716 37.5 35C37.5 35.8284 36.8284 36.5 36 36.5L4 36.5C3.17157 36.5 2.5 35.8284 2.5 35Z" fill="#2E6FF2"/>
<path fill-rule="evenodd" clip-rule="evenodd" d="M9.06066 3.93934C9.64645 4.52513 9.64645 5.47487 9.06066 6.06066L6.12132 9L9.06066 11.9393C9.64645 12.5251 9.64645 13.4749 9.06066 14.0607C8.47487 14.6464 7.52513 14.6464 6.93934 14.0607L2.93934 10.0607C2.35355 9.47487 2.35355 8.52513 2.93934 7.93934L6.93934 3.93934C7.52513 3.35355 8.47487 3.35355 9.06066 3.93934Z" fill="#2E6FF2"/>
<path fill-rule="evenodd" clip-rule="evenodd" d="M18.9393 14.0607C18.3536 13.4749 18.3536 12.5251 18.9393 11.9393L21.8787 9L18.9393 6.06066C18.3536 5.47488 18.3536 4.52513 18.9393 3.93934C19.5251 3.35355 20.4749 3.35355 21.0607 3.93934L25.0607 7.93934C25.6464 8.52513 25.6464 9.47487 25.0607 10.0607L21.0607 14.0607C20.4749 14.6464 19.5251 14.6464 18.9393 14.0607Z" fill="#2E6FF2"/>
</svg>
