<svg width="40" height="40" viewBox="0 0 40 40" fill="none" xmlns="http://www.w3.org/2000/svg">
<path fill-rule="evenodd" clip-rule="evenodd" d="M6.93934 34.0607C6.65804 33.7794 6.5 33.3978 6.5 33L6.5 29C6.5 28.1716 7.17157 27.5 8 27.5C8.82843 27.5 9.5 28.1716 9.5 29L9.5 31.5L30.5 31.5L30.5 29C30.5 28.1716 31.1716 27.5 32 27.5C32.8284 27.5 33.5 28.1716 33.5 29L33.5 33C33.5 33.8284 32.8284 34.5 32 34.5L8 34.5C7.60218 34.5 7.22064 34.342 6.93934 34.0607Z" fill="#2E6FF2"/>
<path fill-rule="evenodd" clip-rule="evenodd" d="M19.9999 27.5C19.1714 27.5 18.4999 26.8284 18.4999 26L18.4999 11.7016L13.0767 17.2942C12.5 17.8889 11.5504 17.9036 10.9556 17.3269C10.3609 16.7501 10.3463 15.8005 10.923 15.2058L18.923 6.95578C19.2055 6.66444 19.594 6.5 19.9999 6.5C20.4057 6.5 20.7942 6.66444 21.0767 6.95578L29.0767 15.2058C29.6534 15.8005 29.6388 16.7501 29.0441 17.3268C28.4494 17.9036 27.4997 17.8889 26.923 17.2942L21.4999 11.7016L21.4999 26C21.4999 26.8284 20.8283 27.5 19.9999 27.5Z" fill="#2E6FF2"/>
</svg>
