<svg width="40" height="40" viewBox="0 0 40 40" fill="none" xmlns="http://www.w3.org/2000/svg">
<path fill-rule="evenodd" clip-rule="evenodd" d="M26.5 13C26.5 12.1716 27.1716 11.5 28 11.5L36 11.5C36.8284 11.5 37.5 12.1716 37.5 13C37.5 13.8284 36.8284 14.5 36 14.5L28 14.5C27.1716 14.5 26.5 13.8284 26.5 13Z" fill="#2E6FF2"/>
<path fill-rule="evenodd" clip-rule="evenodd" d="M26.5 5C26.5 4.17157 27.1716 3.5 28 3.5L36 3.5C36.8284 3.5 37.5 4.17157 37.5 5C37.5 5.82842 36.8284 6.5 36 6.5L28 6.5C27.1716 6.5 26.5 5.82843 26.5 5Z" fill="#2E6FF2"/>
<path fill-rule="evenodd" clip-rule="evenodd" d="M2.5 20C2.5 19.1716 3.17157 18.5 4 18.5L36 18.5C36.8284 18.5 37.5 19.1716 37.5 20C37.5 20.8284 36.8284 21.5 36 21.5L4 21.5C3.17157 21.5 2.5 20.8284 2.5 20Z" fill="#2E6FF2"/>
<path fill-rule="evenodd" clip-rule="evenodd" d="M2.5 27C2.5 26.1716 3.17157 25.5 4 25.5L36 25.5C36.8284 25.5 37.5 26.1716 37.5 27C37.5 27.8284 36.8284 28.5 36 28.5L4 28.5C3.17157 28.5 2.5 27.8284 2.5 27Z" fill="#2E6FF2"/>
<path fill-rule="evenodd" clip-rule="evenodd" d="M2.5 35C2.5 34.1716 3.17157 33.5 4 33.5L36 33.5C36.8284 33.5 37.5 34.1716 37.5 35C37.5 35.8284 36.8284 36.5 36 36.5L4 36.5C3.17157 36.5 2.5 35.8284 2.5 35Z" fill="#2E6FF2"/>
<path fill-rule="evenodd" clip-rule="evenodd" d="M18.0607 4.93934C18.6464 5.52513 18.6464 6.47487 18.0607 7.06066L16.1213 9L18.0607 10.9393C18.6464 11.5251 18.6464 12.4749 18.0607 13.0607C17.4749 13.6464 16.5251 13.6464 15.9393 13.0607L12.9393 10.0607C12.3536 9.47487 12.3536 8.52513 12.9393 7.93934L15.9393 4.93934C16.5251 4.35355 17.4749 4.35355 18.0607 4.93934Z" fill="#2E6FF2"/>
<path fill-rule="evenodd" clip-rule="evenodd" d="M6.71751 3.93934C7.3033 4.52513 7.3033 5.47487 6.71751 6.06066C5.09416 7.68401 5.09416 10.316 6.71751 11.9393C7.3033 12.5251 7.3033 13.4749 6.71751 14.0607C6.13173 14.6464 5.18198 14.6464 4.59619 14.0607C1.80127 11.2657 1.80127 6.73427 4.59619 3.93934C5.18198 3.35355 6.13173 3.35355 6.71751 3.93934Z" fill="#2E6FF2"/>
<path fill-rule="evenodd" clip-rule="evenodd" d="M20.9397 14.0607C20.3539 13.4749 20.3539 12.5251 20.9397 11.9393C22.5631 10.316 22.5631 7.68401 20.9397 6.06066C20.3539 5.47487 20.3539 4.52513 20.9397 3.93934C21.5255 3.35355 22.4752 3.35355 23.061 3.93934C25.856 6.73427 25.856 11.2657 23.061 14.0607C22.4752 14.6464 21.5255 14.6464 20.9397 14.0607Z" fill="#2E6FF2"/>
<path fill-rule="evenodd" clip-rule="evenodd" d="M9.93934 13.0607C9.35355 12.4749 9.35355 11.5251 9.93934 10.9393L11.8787 9L9.93934 7.06066C9.35355 6.47487 9.35355 5.52513 9.93934 4.93934C10.5251 4.35355 11.4749 4.35355 12.0607 4.93934L15.0607 7.93934C15.6464 8.52513 15.6464 9.47487 15.0607 10.0607L12.0607 13.0607C11.4749 13.6464 10.5251 13.6464 9.93934 13.0607Z" fill="#2E6FF2"/>
</svg>
