<svg width="40" height="40" viewBox="0 0 40 40" fill="none" xmlns="http://www.w3.org/2000/svg">
<path fill-rule="evenodd" clip-rule="evenodd" d="M2.5 6C2.5 4.067 4.067 2.5 6 2.5H34C35.933 2.5 37.5 4.067 37.5 6V34C37.5 35.933 35.933 37.5 34 37.5H6C4.067 37.5 2.5 35.933 2.5 34V6ZM6 5.5C5.72386 5.5 5.5 5.72386 5.5 6V34C5.5 34.2761 5.72386 34.5 6 34.5H34C34.2761 34.5 34.5 34.2761 34.5 34V6C34.5 5.72386 34.2761 5.5 34 5.5H6Z" fill="#2E6FF2"/>
<path fill-rule="evenodd" clip-rule="evenodd" d="M24 5.5C23.7239 5.5 23.5 5.72386 23.5 6V8.5C23.5 9.32843 22.8284 10 22 10C21.1716 10 20.5 9.32843 20.5 8.5V6C20.5 4.067 22.067 2.5 24 2.5H26.5C27.3284 2.5 28 3.17157 28 4C28 4.82843 27.3284 5.5 26.5 5.5H24ZM30 4C30 3.17157 30.6716 2.5 31.5 2.5H34C35.933 2.5 37.5 4.067 37.5 6V8.5C37.5 9.32843 36.8284 10 36 10C35.1716 10 34.5 9.32843 34.5 8.5V6C34.5 5.72386 34.2761 5.5 34 5.5H31.5C30.6716 5.5 30 4.82843 30 4ZM22 12C22.8284 12 23.5 12.6716 23.5 13.5V16C23.5 16.2761 23.7239 16.5 24 16.5H26.5C27.3284 16.5 28 17.1716 28 18C28 18.8284 27.3284 19.5 26.5 19.5H24C22.067 19.5 20.5 17.933 20.5 16V13.5C20.5 12.6716 21.1716 12 22 12ZM36 12C36.8284 12 37.5 12.6716 37.5 13.5V16C37.5 17.933 35.933 19.5 34 19.5H31.5C30.6716 19.5 30 18.8284 30 18C30 17.1716 30.6716 16.5 31.5 16.5H34C34.2761 16.5 34.5 16.2761 34.5 16V13.5C34.5 12.6716 35.1716 12 36 12Z" fill="#2E6FF2"/>
<path fill-rule="evenodd" clip-rule="evenodd" d="M9.47509 30.6672C8.88931 30.0814 8.88931 29.1317 9.47509 28.5459L14.9131 23.1079L11.4158 23.1904C10.5876 23.2099 9.90042 22.5544 9.88088 21.7262C9.86134 20.898 10.5169 20.2107 11.3451 20.1912L18.587 20.0204C18.997 20.0107 19.393 20.1693 19.683 20.4593C19.973 20.7493 20.1316 21.1454 20.1219 21.5553L19.9511 28.7972C19.9316 29.6254 19.2444 30.281 18.4162 30.2614C17.588 30.2419 16.9324 29.5547 16.952 28.7265L17.0344 25.2292L11.5964 30.6672C11.0106 31.253 10.0609 31.253 9.47509 30.6672Z" fill="#2E6FF2"/>
</svg>
