<svg width="40" height="40" viewBox="0 0 40 40" fill="none" xmlns="http://www.w3.org/2000/svg">
<path d="M10 15.5C9.17157 15.5 8.5 16.1716 8.5 17C8.5 17.8284 9.17157 18.5 10 18.5L16 18.5C16.8284 18.5 17.5 17.8284 17.5 17C17.5 16.1716 16.8284 15.5 16 15.5L10 15.5Z" fill="white"/>
<path d="M8.5 23C8.5 22.1716 9.17157 21.5 10 21.5L16 21.5C16.8284 21.5 17.5 22.1716 17.5 23C17.5 23.8284 16.8284 24.5 16 24.5L10 24.5C9.17157 24.5 8.5 23.8284 8.5 23Z" fill="white"/>
<path d="M10 9.5C9.17157 9.5 8.5 10.1716 8.5 11C8.5 11.8284 9.17157 12.5 10 12.5L16 12.5C16.8284 12.5 17.5 11.8284 17.5 11C17.5 10.1716 16.8284 9.5 16 9.5L10 9.5Z" fill="white"/>
<path fill-rule="evenodd" clip-rule="evenodd" d="M6 2.5C4.067 2.5 2.5 4.067 2.5 6V34C2.5 35.933 4.067 37.5 6 37.5H27C28.933 37.5 30.5 35.933 30.5 34V30.9271L33.3292 32.3416C33.7942 32.5741 34.3464 32.5493 34.7886 32.276C35.2308 32.0027 35.5 31.5199 35.5 31V21.4775C36.7479 19.9982 37.5 18.0869 37.5 16C37.5 11.8174 34.479 8.3404 30.5 7.63193V6C30.5 4.067 28.933 2.5 27 2.5H6ZM29 24.5C30.2477 24.5 31.4326 24.2312 32.5 23.7483V28.5729L29.6708 27.1584C29.2485 26.9472 28.7515 26.9472 28.3292 27.1584L25.5 28.5729V23.7483C26.5674 24.2312 27.7523 24.5 29 24.5ZM20.5 16C20.5 18.0869 21.2521 19.9982 22.5 21.4775V31C22.5 31.5199 22.7692 32.0027 23.2114 32.276C23.6536 32.5493 24.2058 32.5741 24.6708 32.3416L27.5 30.9271V34C27.5 34.2761 27.2761 34.5 27 34.5H6C5.72386 34.5 5.5 34.2761 5.5 34V6C5.5 5.72386 5.72386 5.5 6 5.5H27C27.2761 5.5 27.5 5.72386 27.5 6V7.63193C23.521 8.3404 20.5 11.8174 20.5 16ZM29 10.5C25.9624 10.5 23.5 12.9624 23.5 16C23.5 19.0376 25.9624 21.5 29 21.5C32.0376 21.5 34.5 19.0376 34.5 16C34.5 12.9624 32.0376 10.5 29 10.5Z" fill="white"/>
</svg>
