<svg width="24" height="24" viewBox="0 0 24 24" fill="none" xmlns="http://www.w3.org/2000/svg">
<g clip-path="url(#clip0_850_4793)">
<path d="M14.1651 4.75L19.3612 13.75C20.3235 15.4167 19.1207 17.5 17.1962 17.5L6.80385 17.5C4.87934 17.5 3.67653 15.4167 4.63878 13.75L9.83494 4.75C10.7972 3.08333 13.2028 3.08333 14.1651 4.75Z" fill="#1F2123" stroke="#595F66"/>
<mask id="path-2-outside-1_850_4793" maskUnits="userSpaceOnUse" x="2" y="11" width="20" height="8" fill="black">
<rect fill="white" x="2" y="11" width="20" height="8"/>
<path fill-rule="evenodd" clip-rule="evenodd" d="M19.1288 12L19.9949 13.5C21.1496 15.5 19.7062 18 17.3968 18H7.00447C4.69507 18 3.2517 15.5 4.4064 13.5L5.27243 12H19.1288Z"/>
</mask>
<path fill-rule="evenodd" clip-rule="evenodd" d="M19.1288 12L19.9949 13.5C21.1496 15.5 19.7062 18 17.3968 18H7.00447C4.69507 18 3.2517 15.5 4.4064 13.5L5.27243 12H19.1288Z" fill="#1F2123"/>
<path d="M19.1288 12L19.9949 11.5L19.7062 11H19.1288V12ZM19.9949 13.5L20.8609 13L20.8609 13L19.9949 13.5ZM4.4064 13.5L3.54037 13L3.54037 13L4.4064 13.5ZM5.27243 12V11H4.69508L4.4064 11.5L5.27243 12ZM18.2628 12.5L19.1288 14L20.8609 13L19.9949 11.5L18.2628 12.5ZM19.1288 14C19.8986 15.3333 18.9364 17 17.3968 17V19C20.476 19 22.4005 15.6667 20.8609 13L19.1288 14ZM17.3968 17H7.00447V19H17.3968V17ZM7.00447 17C5.46487 17 4.50262 15.3333 5.27242 14L3.54037 13C2.00077 15.6667 3.92527 19 7.00447 19V17ZM5.27242 14L6.13845 12.5L4.4064 11.5L3.54037 13L5.27242 14ZM5.27243 13H19.1288V11H5.27243V13Z" fill="#1F2123" mask="url(#path-2-outside-1_850_4793)"/>
</g>
<defs>
<clipPath id="clip0_850_4793">
<rect width="24" height="24" fill="white"/>
</clipPath>
</defs>
</svg>
