<svg width="40" height="40" viewBox="0 0 40 40" fill="none" xmlns="http://www.w3.org/2000/svg">
<path d="M20 13.5C20.8284 13.5 21.5 14.1716 21.5 15V19.5H26C26.8284 19.5 27.5 20.1716 27.5 21C27.5 21.8284 26.8284 22.5 26 22.5H21.5V27C21.5 27.8284 20.8284 28.5 20 28.5C19.1716 28.5 18.5 27.8284 18.5 27V22.5H14C13.1716 22.5 12.5 21.8284 12.5 21C12.5 20.1716 13.1716 19.5 14 19.5H18.5V15C18.5 14.1716 19.1716 13.5 20 13.5Z" fill="white"/>
<path fill-rule="evenodd" clip-rule="evenodd" d="M6.94912 3.0768C6.64676 2.6896 6.17395 2.475 5.68343 2.50233C5.19291 2.52966 4.74687 2.79546 4.48939 3.21386C3.16959 5.35854 1.46066 10.3691 3.31294 15.714C2.78453 17.3834 2.49999 19.1598 2.49999 21C2.49999 30.665 10.335 38.5 20 38.5C29.665 38.5 37.5 30.665 37.5 21C37.5 19.3064 37.259 17.6668 36.8086 16.1147C38.893 10.6204 37.1281 5.40865 35.7775 3.21386C35.5173 2.79106 35.0648 2.52438 34.5688 2.50159C34.0729 2.4788 33.5978 2.70285 33.3 3.10001C31.8083 5.08891 31.0696 6.07362 30.4012 6.92518C27.4938 4.77348 23.8942 3.50001 20 3.50001C16.2193 3.50001 12.716 4.7004 9.85433 6.73961C9.73676 6.59265 9.61802 6.44448 9.49629 6.29259L9.49408 6.28983L9.49332 6.28889C8.83869 5.47203 8.08979 4.53753 6.94912 3.0768ZM6.30003 15.1463C5.08566 12.0253 5.44694 8.98033 6.12205 6.87541C6.50894 7.36216 6.84224 7.77806 7.15295 8.16576L7.15369 8.16668C7.59495 8.7173 7.98721 9.20678 8.42431 9.76348C8.67674 10.085 9.04946 10.2896 9.45624 10.3298C9.86302 10.3701 10.2686 10.2427 10.5792 9.97694C13.1141 7.80829 16.4023 6.50001 20 6.50001C23.6974 6.50001 27.0685 7.88195 29.6304 10.1598C29.9355 10.4311 30.3381 10.5663 30.7451 10.5342C31.1521 10.502 31.5285 10.3054 31.7873 9.98958C32.0359 9.68618 32.2609 9.40829 32.4842 9.12764C32.9771 8.50841 33.4584 7.88061 34.1662 6.9421C34.8503 9.11683 35.1908 12.2654 33.8377 15.4644C33.697 15.797 33.681 16.1692 33.7927 16.5126C34.2514 17.9237 34.5 19.4313 34.5 21C34.5 29.0081 28.0081 35.5 20 35.5C11.9919 35.5 5.49999 29.0081 5.49999 21C5.49999 19.3106 5.7883 17.6917 6.31716 16.1879C6.43606 15.8498 6.42998 15.4803 6.30003 15.1463Z" fill="white"/>
</svg>
