<svg width="24" height="24" viewBox="0 0 24 24" fill="none" xmlns="http://www.w3.org/2000/svg">
<path fill-rule="evenodd" clip-rule="evenodd" d="M1.5 7.2C1.5 4.05198 4.05198 1.5 7.2 1.5H16.8C19.948 1.5 22.5 4.05198 22.5 7.2V16.8C22.5 19.948 19.948 22.5 16.8 22.5H7.2C4.05198 22.5 1.5 19.948 1.5 16.8V7.2ZM7.2 3.3C5.04609 3.3 3.3 5.04609 3.3 7.2V16.8C3.3 18.9539 5.04609 20.7 7.2 20.7H16.8C18.9539 20.7 20.7 18.9539 20.7 16.8V7.2C20.7 5.04609 18.9539 3.3 16.8 3.3H7.2ZM9.3 15C9.3 15.3272 9.47755 15.6286 9.76371 15.7872C10.0499 15.9458 10.3996 15.9366 10.677 15.7632L15.477 12.7632C15.7401 12.5987 15.9 12.3103 15.9 12C15.9 11.6897 15.7401 11.4013 15.477 11.2368L10.677 8.2368C10.3996 8.0634 10.0499 8.05422 9.76371 8.21282C9.47755 8.37142 9.3 8.67283 9.3 9L9.3 15Z" fill="#FF3440"/>
</svg>
