<svg width="24" height="24" viewBox="0 0 24 24" fill="none" xmlns="http://www.w3.org/2000/svg">
<g clip-path="url(#clip0_828_4656)">
<path d="M14.1651 4.75L19.3612 13.75C20.3235 15.4167 19.1207 17.5 17.1962 17.5L6.80385 17.5C4.87934 17.5 3.67653 15.4167 4.63878 13.75L9.83494 4.75C10.7972 3.08333 13.2028 3.08333 14.1651 4.75Z" fill="white" stroke="#D9DBE0"/>
<mask id="path-2-outside-1_828_4656" maskUnits="userSpaceOnUse" x="1.97583" y="12" width="20" height="8" fill="black">
<rect fill="white" x="1.97583" y="12" width="20" height="8"/>
<path fill-rule="evenodd" clip-rule="evenodd" d="M19.102 13L19.968 14.5002C21.1225 16.5002 19.6791 19 17.3698 19H6.98031C4.67101 19 3.22762 16.5002 4.38211 14.5002L5.2481 13H19.102Z"/>
</mask>
<path fill-rule="evenodd" clip-rule="evenodd" d="M19.102 13L19.968 14.5002C21.1225 16.5002 19.6791 19 17.3698 19H6.98031C4.67101 19 3.22762 16.5002 4.38211 14.5002L5.2481 13H19.102Z" fill="white"/>
<path d="M19.102 13L19.9681 12.5001L19.6794 12H19.102V13ZM19.968 14.5002L19.1019 15.0001L19.1019 15.0001L19.968 14.5002ZM4.38211 14.5002L5.24817 15.0001L5.24817 15.0001L4.38211 14.5002ZM5.2481 13V12H4.6707L4.38203 12.5001L5.2481 13ZM18.2359 13.4999L19.1019 15.0001L20.834 14.0003L19.9681 12.5001L18.2359 13.4999ZM19.1019 15.0001C19.8716 16.3335 18.9093 18 17.3698 18V20C20.4489 20 22.3734 16.6669 20.834 14.0003L19.1019 15.0001ZM17.3698 18H6.98031V20H17.3698V18ZM6.98031 18C5.44078 18 4.47852 16.3335 5.24817 15.0001L3.51605 14.0003C1.97672 16.6669 3.90125 20 6.98031 20V18ZM5.24817 15.0001L6.11416 13.4999L4.38203 12.5001L3.51605 14.0003L5.24817 15.0001ZM5.2481 14H19.102V12H5.2481V14Z" fill="white" mask="url(#path-2-outside-1_828_4656)"/>
</g>
<defs>
<clipPath id="clip0_828_4656">
<rect width="24" height="24" fill="white"/>
</clipPath>
</defs>
</svg>
