<svg width="18" height="18" viewBox="0 0 18 18" fill="none" xmlns="http://www.w3.org/2000/svg">
<path fill-rule="evenodd" clip-rule="evenodd" d="M4.12709 1.37833C3.99899 1.21821 3.80505 1.125 3.6 1.125C3.39495 1.125 3.20101 1.21821 3.07291 1.37833L1.27291 3.62833C1.17716 3.74802 1.125 3.89673 1.125 4.05V16.2C1.125 16.5728 1.42721 16.875 1.8 16.875H5.4C5.77279 16.875 6.075 16.5728 6.075 16.2V15.525H11.925V16.2C11.925 16.5728 12.2272 16.875 12.6 16.875H16.2C16.5728 16.875 16.875 16.5728 16.875 16.2V4.05C16.875 3.89673 16.8228 3.74802 16.7271 3.62833L14.9271 1.37833C14.799 1.21821 14.6051 1.125 14.4 1.125C14.1949 1.125 14.001 1.21821 13.8729 1.37833L12.0729 3.62833C11.9772 3.74802 11.925 3.89673 11.925 4.05V4.725L6.075 4.725V4.05C6.075 3.89673 6.02284 3.74802 5.92709 3.62833L4.12709 1.37833ZM4.725 4.28678L3.6 2.88053L2.475 4.28678V15.525H4.725V4.28678ZM6.075 7.875V6.075L11.925 6.075V7.875L6.075 7.875ZM6.075 9.225V11.025L11.925 11.025V9.225L6.075 9.225ZM6.075 12.375V14.175L11.925 14.175V12.375L6.075 12.375ZM13.275 15.525V4.28678L14.4 2.88053L15.525 4.28678V15.525H13.275Z" fill="#53CB42"/>
</svg>
