<svg width="40" height="40" viewBox="0 0 40 40" fill="none" xmlns="http://www.w3.org/2000/svg">
<path fill-rule="evenodd" clip-rule="evenodd" d="M7.50007 16C7.50007 9.09644 13.0965 3.5 20.0001 3.5C26.9036 3.5 32.5001 9.09644 32.5001 16C32.5001 18.1571 31.9537 20.1866 30.9917 21.9576L36.2959 31.2349C36.56 31.6968 36.5609 32.266 36.2982 32.7309C36.0355 33.1958 35.5485 33.4868 35.0185 33.4957L30.7556 33.5667L28.5633 37.2591C28.2907 37.7182 27.7977 37.9986 27.2676 37.9958C26.7376 37.9931 26.2498 37.7077 25.9857 37.2459L20.9644 28.4634C20.6461 28.4876 20.3245 28.5 20.0001 28.5C19.6756 28.5 19.3541 28.4876 19.0358 28.4634L14.0145 37.2459C13.7504 37.7077 13.2626 37.9931 12.7326 37.9958C12.2025 37.9986 11.7095 37.7182 11.4369 37.2591L9.24456 33.5667L4.98171 33.4957C4.45167 33.4868 3.96474 33.1958 3.70204 32.7309C3.43935 32.266 3.44019 31.6968 3.70427 31.2349L9.00845 21.9577C8.04648 20.1866 7.50007 18.1571 7.50007 16ZM29.0561 24.6162C27.6863 26.0555 25.9768 27.1687 24.0562 27.8272L27.3091 33.5165L28.6212 31.3066C28.8879 30.8575 29.366 30.5787 29.8846 30.57L32.4359 30.5275L29.0561 24.6162ZM15.944 27.8272C14.0234 27.1687 12.3139 26.0555 10.944 24.6162L7.56429 30.5275L10.1156 30.57C10.6342 30.5787 11.1123 30.8575 11.379 31.3066L12.6911 33.5165L15.944 27.8272ZM19.1788 10.5352C19.5175 9.82159 20.4827 9.82159 20.8213 10.5352L22.1801 13.3987L25.2116 13.8597C25.9687 13.9748 26.2685 14.9589 25.7167 15.518L23.5322 17.7313L24.0484 20.8626C24.1787 21.6525 23.3955 22.2581 22.7209 21.8891L20.0001 20.4007L17.2792 21.8891C16.6047 22.2581 15.8214 21.6525 15.9517 20.8626L16.468 17.7313L14.2834 15.518C13.7316 14.9589 14.0314 13.9748 14.7885 13.8597L17.82 13.3987L19.1788 10.5352Z" fill="white"/>
</svg>
