<svg width="28" height="28" viewBox="0 0 28 28" fill="none" xmlns="http://www.w3.org/2000/svg">
<g id="icon-book">
<path id="Union" fill-rule="evenodd" clip-rule="evenodd" d="M6.3 1.75C3.7871 1.75 1.75 3.7871 1.75 6.3V21.7C1.75 21.8571 1.75796 22.0123 1.77349 22.1652C2.0065 24.4596 3.94416 26.25 6.3 26.25H23.8C25.1531 26.25 26.25 25.1531 26.25 23.8V19.6V4.2C26.25 2.8469 25.1531 1.75 23.8 1.75H6.3ZM24.15 17.1748V4.2C24.15 4.0067 23.9933 3.85 23.8 3.85H14.7V11.9C14.7 12.1882 14.5233 12.447 14.2549 12.5519C13.9865 12.6569 13.6811 12.5866 13.4856 12.3748L11.7144 10.4559C11.4372 10.1556 10.9628 10.1556 10.6856 10.4559L8.91436 12.3748C8.71886 12.5866 8.41354 12.6569 8.1451 12.5519C7.87667 12.447 7.7 12.1882 7.7 11.9V3.85H6.3C4.9469 3.85 3.85 4.9469 3.85 6.3V17.8653C4.55721 17.4125 5.39795 17.15 6.3 17.15H23.8C23.9188 17.15 24.0357 17.1585 24.15 17.1748ZM3.85 21.7C3.85 23.0531 4.9469 24.15 6.3 24.15H23.8C23.9933 24.15 24.15 23.9933 24.15 23.8V19.6C24.15 19.4067 23.9933 19.25 23.8 19.25H6.3C4.9469 19.25 3.85 20.3469 3.85 21.7Z" fill="#8D9299"/>
</g>
</svg>
