<svg width="52" height="30" viewBox="0 0 52 30" fill="none" xmlns="http://www.w3.org/2000/svg">
<path d="M49.8126 14C48.6038 14 47.6252 14.9617 47.6252 16.1496C47.6252 21.4151 43.2643 25.7007 37.9063 25.7007C32.5484 25.7007 28.1874 21.4151 28.1874 16.1496C28.1874 14.9617 27.2088 14 26 14C24.7912 14 23.8126 14.9617 23.8126 16.1496C23.8126 21.4151 19.4516 25.7007 14.0937 25.7007C8.73574 25.7007 4.37478 21.4151 4.37478 16.1496C4.37478 14.9617 3.39621 14 2.18739 14C0.978569 14 0 14.9617 0 16.1496C0 23.7865 6.32271 30 14.0937 30C19.0994 30 23.4995 27.4205 26 23.5466C28.5005 27.4205 32.9029 30 37.9063 30C45.6773 30 52 23.7865 52 16.1496C52 14.9617 51.0214 14 49.8126 14Z" fill="#D9DBE0"/>
<path d="M14 8C16.2091 8 18 6.20914 18 4C18 1.79086 16.2091 0 14 0C11.7909 0 10 1.79086 10 4C10 6.20914 11.7909 8 14 8Z" fill="#D9DBE0"/>
<path d="M38 8C40.2091 8 42 6.20914 42 4C42 1.79086 40.2091 0 38 0C35.7909 0 34 1.79086 34 4C34 6.20914 35.7909 8 38 8Z" fill="#D9DBE0"/>
</svg>
